LJogging_XZ.mot
version=1
datacolumns 20
datarows 40
range 1.360000 1.750000
inDegrees=yes
endheader
time	pelvis_tilt	pelvis_list	pelvis_rotation	hip_flexion_r	hip_adduction_r	hip_rotation_r	knee_angle_r	ankle_angle_r	hip_flexion_l	hip_adduction_l	hip_rotation_l	knee_angle_l	ankle_angle_l	pelvis_tx	pelvis_ty	pelvis_tz	lumbar_bending	lumbar_rotation	lumbar_extension
1.360000	14.972985	3.285117	-178.764476	23.363319	4.622766	-4.698603	-32.338890	15.713131	30.514293	-3.589389	-0.935522	-65.690614	6.577824	-0.627583	0.950356	-0.026284	0.206667	2.517541	15.297464
1.370000	14.718786	2.543343	-178.220259	20.698511	3.761726	-4.808040	-30.424587	14.322395	31.653977	-2.078418	-0.827978	-62.769127	7.808046	-0.649667	0.956761	-0.027137	1.212900	1.340143	15.143002
1.380000	14.458798	1.851425	-177.725273	17.989134	2.965719	-4.876530	-28.308883	12.438865	32.455355	-0.592009	-0.728702	-59.197275	8.881164	-0.672074	0.963651	-0.027684	2.219249	0.243564	14.963004
1.390000	14.212482	1.217372	-177.250425	15.283904	2.227480	-4.931714	-26.054330	10.133055	32.922020	0.860598	-0.603877	-54.976258	9.702220	-0.694851	0.970851	-0.027931	3.184380	-0.755083	14.787615
1.400000	13.992537	0.646474	-176.780377	12.630508	1.548259	-4.990858	-23.743196	7.480958	33.075008	2.259725	-0.423075	-50.145769	10.188643	-0.718024	0.978124	-0.027903	4.053136	-1.641974	14.635004
1.410000	13.796976	0.152920	-176.324396	10.068410	0.948643	-5.046175	-21.472282	4.566530	32.949738	3.560264	-0.165336	-44.800353	10.305155	-0.741584	0.985187	-0.027646	4.749843	-2.392329	14.501265
1.420000	13.610162	-0.238395	-175.918161	7.629882	0.464613	-5.058808	-19.346384	1.491186	32.594606	4.694142	0.171192	-39.092082	10.084125	-0.765482	0.991744	-0.027211	5.172703	-2.965528	14.361185
1.430000	13.411352	-0.498482	-175.612064	5.345477	0.133489	-4.972202	-17.470118	-1.629468	32.070711	5.588441	0.558695	-33.216614	9.622338	-0.789632	0.997533	-0.026658	5.448347	-3.373700	14.216084
1.440000	13.184517	-0.602133	-175.449991	3.246541	-0.018421	-4.736647	-15.939191	-4.680279	31.449483	6.187347	0.940488	-27.388876	9.055385	-0.813941	1.002363	-0.026052	6.087447	-3.735530	14.129039
1.450000	12.923410	-0.532968	-175.449855	1.362165	0.019269	-4.328925	-14.835100	-7.553687	30.805471	6.466445	1.250524	-21.818111	8.519316	-0.838316	1.006140	-0.025461	-0.000000	-0.000000	0.000000
1.460000	12.631200	-0.286279	-175.597142	-0.284813	0.241089	-3.761995	-14.224923	-10.149992	30.206880	6.434860	1.438624	-16.689216	8.120475	-0.862672	1.008858	-0.024950	-0.000000	-0.000000	0.000000
1.470000	12.316952	0.128202	-175.853705	-1.679514	0.625985	-3.086671	-14.160982	-12.383205	29.707338	6.128864	1.485555	-12.151050	7.922788	-0.886928	1.010578	-0.024569	-0.000000	-0.000000	0.000000
1.480000	11.990503	0.683190	-176.173274	-2.816239	1.135941	-2.386943	-14.674875	-14.191764	29.339017	5.603984	1.406252	-8.308371	7.944663	-0.911008	1.011396	-0.024350	-0.000000	-0.000000	0.000000
1.490000	11.657966	1.333086	-176.514866	-3.699778	1.715607	-1.764361	-15.767896	-15.546322	29.108077	4.928436	1.243394	-5.215878	8.157711	-0.934850	1.011418	-0.024306	-0.000000	-0.000000	0.000000
1.500000	11.321069	2.018481	-176.850525	-4.344217	2.296178	-1.306337	-17.405487	-16.450741	28.996596	4.176635	1.051980	-2.877165	8.484782	-0.958427	1.010737	-0.024432	-0.000000	-0.000000	0.000000
1.510000	10.979149	2.675300	-177.165435	-4.770521	2.804027	-1.056301	-19.521024	-16.937787	28.970934	3.422248	0.882068	-1.252270	8.803306	-0.981751	1.009414	-0.024714	-0.000000	-0.000000	0.000000
1.520000	10.630856	3.243830	-177.451382	-5.004181	3.170404	-1.008878	-22.029019	-17.059739	28.993237	2.733124	0.766252	-0.274052	8.960708	-1.004870	1.007472	-0.025135	-0.000000	-0.000000	0.000000
1.530000	10.277613	3.673467	-177.700260	-5.068675	3.337260	-1.124068	-24.843576	-16.872101	29.035906	2.169577	0.709870	0.130712	8.799010	-1.027835	1.004903	-0.025683	-0.000000	-0.000000	0.000000
1.540000	9.928018	3.923729	-177.902124	-4.976177	3.258767	-1.349101	-27.894140	-16.416491	29.094423	1.784455	0.688681	0.021642	8.187253	-1.050673	1.001681	-0.026356	-0.000000	-0.000000	0.000000
1.550000	9.598056	3.964257	-178.046696	-4.724068	2.901010	-1.641246	-31.130906	-15.714993	29.190107	1.623153	0.658548	-0.567208	7.058114	-1.073369	0.997783	-0.027156	-0.000000	-0.000000	0.000000
1.560000	9.305870	3.774666	-178.127223	-4.301050	2.241045	-1.977023	-34.518475	-14.781830	29.360184	1.722419	0.567996	-1.627689	5.434611	-1.095863	0.993216	-0.028073	-0.000000	-0.000000	0.000000
1.570000	9.064326	3.344814	-178.144595	-3.698417	1.267307	-2.350938	-38.024106	-13.639404	29.640468	2.106781	0.373139	-3.168132	3.448206	-1.118073	0.988046	-0.029078	-0.000000	-0.000000	0.000000
1.580000	8.878123	2.676394	-178.108966	-2.915902	-0.017321	-2.773987	-41.608727	-12.322774	30.052302	2.783380	0.053245	-5.199069	1.348944	-1.139911	0.982412	-0.030122	-0.000000	-0.000000	0.000000
1.590000	8.750369	1.784677	-178.039267	-1.954490	-1.592431	-3.263474	-45.224540	-10.874139	30.602224	3.737680	-0.391060	-7.715391	-0.523634	-1.161310	0.976528	-0.031149	-0.000000	-0.000000	0.000000
1.600000	8.689967	0.699428	-177.961842	-0.804613	-3.417795	-3.824003	-48.818576	-9.339701	31.286232	4.930053	-0.951438	-10.676049	-1.824764	-1.182228	0.970658	-0.032103	-0.000000	-0.000000	0.000000
1.610000	8.707252	-0.534694	-177.907360	0.554929	-5.430613	-4.432284	-52.337983	-7.777634	32.085056	6.293757	-1.610682	-13.987627	-2.309840	-1.202634	0.965079	-0.032958	-0.000000	-0.000000	0.000000
1.620000	8.804593	-1.858791	-177.907245	2.150789	-7.543924	-5.032411	-55.734140	-6.262211	32.956106	7.737484	-2.330076	-17.500796	-1.906734	-1.222493	0.960030	-0.033718	-0.000000	-0.000000	0.000000
1.630000	8.975156	-3.200882	-177.990681	4.012179	-9.647102	-5.543935	-58.964563	-4.861805	33.836626	9.152341	-3.048786	-21.027057	-0.717836	-1.241761	0.955685	-0.034414	-0.000000	-0.000000	0.000000
1.640000	9.203797	-4.476553	-178.179315	6.161859	-11.607851	-5.880880	-61.988404	-3.606066	34.653456	10.421279	-3.697038	-24.374962	1.043354	-1.260396	0.952137	-0.035089	-0.000000	-0.000000	0.000000
1.650000	9.461305	-5.592481	-178.481182	8.592858	-13.279720	-5.975820	-64.754988	-2.473425	35.327352	11.431078	-4.210785	-27.391427	3.137822	-1.278379	0.949409	-0.035778	-0.000000	-0.000000	0.000000
1.660000	9.700234	-6.458328	-178.887550	11.246576	-14.522036	-5.800962	-67.193147	-1.400218	35.774946	12.088773	-4.544666	-29.987376	5.363537	-1.295730	0.947485	-0.036511	-0.000000	-0.000000	0.000000
1.670000	9.863140	-7.006139	-179.370126	14.011875	-15.231317	-5.376030	-69.208081	-0.304257	35.916187	12.342249	-4.683283	-32.135553	7.576485	-1.312536	0.946357	-0.037313	-0.000000	-0.000000	0.000000
1.680000	9.901211	-7.209161	-179.879996	16.750379	-15.370854	-4.755999	-70.686654	0.873542	35.685876	12.196635	-4.648143	-33.843209	9.676916	-1.328973	0.946071	-0.038217	-0.000000	-0.000000	0.000000
1.690000	9.793464	-7.092389	-180.354880	19.337813	-14.983379	-4.004359	-71.510362	2.120519	35.044322	11.716702	-4.499996	-35.115647	11.582269	-1.345298	0.946748	-0.039266	-0.000000	-0.000000	0.000000
1.700000	9.555776	-6.728667	-180.732850	21.697259	-14.179584	-3.170988	-71.575181	3.328436	33.983829	11.012932	-4.332109	-35.933119	13.209289	-1.361813	0.948558	-0.040511	-0.000000	-0.000000	0.000000
1.710000	9.234137	-6.218187	-180.965344	23.804177	-13.106859	-2.287944	-70.816570	4.319371	32.530950	10.215119	-4.247892	-36.256290	14.474285	-1.378784	0.951647	-0.041989	-0.000000	-0.000000	0.000000
1.720000	8.890516	-5.662054	-181.025204	25.669561	-11.916716	-1.378651	-69.239073	4.919936	30.753429	9.444862	-4.330442	-36.057824	15.308937	-1.396315	0.956034	-0.043705	-0.000000	-0.000000	0.000000
1.730000	8.592411	-5.142856	-180.909156	27.317585	-10.746881	-0.474057	-66.946482	5.050023	28.777120	8.797554	-4.613803	-35.365811	15.681989	-1.414202	0.961516	-0.045602	-0.000000	-0.000000	0.000000
1.740000	8.407903	-4.714083	-180.639447	28.764866	-9.716655	0.366274	-64.165124	4.777139	26.805774	8.331435	-5.055395	-34.304957	15.614044	-1.431783	0.967599	-0.047529	-0.000000	-0.000000	0.000000
1.750000	8.404066	-4.395731	-180.265114	30.002618	-8.930484	1.031893	-61.255901	4.315817	25.133423	8.060316	-5.510404	-33.124379	15.184751	-1.447800	0.973483	-0.049206	-0.000000	-0.000000	0.000000
